<mxfile host="app.diagrams.net" modified="2022-11-05T08:27:37.497Z" agent="5.0 (Windows NT 10.0; Win64; x64) AppleWebKit/537.36 (KHTML, like Gecko) Chrome/107.0.0.0 Safari/537.36" etag="tDvAtDZv7opwPl17PTik" version="20.5.1" type="github">
  <diagram id="nDLk0ft438gr6uN_P_It" name="第 1 页">
    <mxGraphModel dx="1038" dy="579" grid="1" gridSize="10" guides="1" tooltips="1" connect="1" arrows="1" fold="1" page="1" pageScale="1" pageWidth="827" pageHeight="1169" math="0" shadow="0">
      <root>
        <mxCell id="0" />
        <mxCell id="1" parent="0" />
        <mxCell id="LRi96Np3pduru6x6Xqpe-8" value="" style="edgeStyle=orthogonalEdgeStyle;rounded=0;orthogonalLoop=1;jettySize=auto;html=1;exitX=0.303;exitY=1.075;exitDx=0;exitDy=0;exitPerimeter=0;" edge="1" parent="1" source="LRi96Np3pduru6x6Xqpe-2" target="LRi96Np3pduru6x6Xqpe-3">
          <mxGeometry relative="1" as="geometry" />
        </mxCell>
        <mxCell id="LRi96Np3pduru6x6Xqpe-2" value="etax_login_conponent&lt;br&gt;" style="rounded=1;whiteSpace=wrap;html=1;" vertex="1" parent="1">
          <mxGeometry x="270" y="120" width="140" height="40" as="geometry" />
        </mxCell>
        <mxCell id="LRi96Np3pduru6x6Xqpe-9" value="" style="edgeStyle=orthogonalEdgeStyle;rounded=0;orthogonalLoop=1;jettySize=auto;html=1;entryX=0.5;entryY=0;entryDx=0;entryDy=0;" edge="1" parent="1" source="LRi96Np3pduru6x6Xqpe-3" target="LRi96Np3pduru6x6Xqpe-7">
          <mxGeometry relative="1" as="geometry">
            <Array as="points">
              <mxPoint x="312" y="480" />
            </Array>
          </mxGeometry>
        </mxCell>
        <mxCell id="LRi96Np3pduru6x6Xqpe-3" value="etax_login_center" style="rounded=1;whiteSpace=wrap;html=1;" vertex="1" parent="1">
          <mxGeometry x="242" y="360" width="140" height="40" as="geometry" />
        </mxCell>
        <mxCell id="LRi96Np3pduru6x6Xqpe-4" value="etax_login_linux_jvrpa" style="rounded=1;whiteSpace=wrap;html=1;" vertex="1" parent="1">
          <mxGeometry x="470" y="350" width="140" height="40" as="geometry" />
        </mxCell>
        <mxCell id="LRi96Np3pduru6x6Xqpe-5" value="RocketMQ" style="rounded=1;whiteSpace=wrap;html=1;" vertex="1" parent="1">
          <mxGeometry x="480" y="220" width="120" height="40" as="geometry" />
        </mxCell>
        <mxCell id="LRi96Np3pduru6x6Xqpe-6" value="Redis" style="rounded=1;whiteSpace=wrap;html=1;" vertex="1" parent="1">
          <mxGeometry x="659" y="220" width="120" height="40" as="geometry" />
        </mxCell>
        <mxCell id="LRi96Np3pduru6x6Xqpe-7" value="DB" style="rounded=1;whiteSpace=wrap;html=1;" vertex="1" parent="1">
          <mxGeometry x="252" y="480" width="120" height="40" as="geometry" />
        </mxCell>
        <mxCell id="LRi96Np3pduru6x6Xqpe-10" value="" style="edgeStyle=orthogonalEdgeStyle;rounded=0;orthogonalLoop=1;jettySize=auto;html=1;exitX=1;exitY=0.5;exitDx=0;exitDy=0;entryX=0.5;entryY=0;entryDx=0;entryDy=0;" edge="1" parent="1" source="LRi96Np3pduru6x6Xqpe-2" target="LRi96Np3pduru6x6Xqpe-5">
          <mxGeometry relative="1" as="geometry">
            <mxPoint x="350" y="170" as="sourcePoint" />
            <mxPoint x="350" y="230" as="targetPoint" />
            <Array as="points">
              <mxPoint x="540" y="140" />
            </Array>
          </mxGeometry>
        </mxCell>
        <mxCell id="LRi96Np3pduru6x6Xqpe-11" value="" style="edgeStyle=orthogonalEdgeStyle;rounded=0;orthogonalLoop=1;jettySize=auto;html=1;exitX=0.5;exitY=1;exitDx=0;exitDy=0;entryX=0.5;entryY=0;entryDx=0;entryDy=0;" edge="1" parent="1" source="LRi96Np3pduru6x6Xqpe-5" target="LRi96Np3pduru6x6Xqpe-4">
          <mxGeometry relative="1" as="geometry">
            <mxPoint x="260" y="490" as="sourcePoint" />
            <mxPoint x="390" y="570" as="targetPoint" />
            <Array as="points">
              <mxPoint x="540" y="330" />
              <mxPoint x="540" y="330" />
            </Array>
          </mxGeometry>
        </mxCell>
        <mxCell id="LRi96Np3pduru6x6Xqpe-12" value="" style="edgeStyle=orthogonalEdgeStyle;rounded=0;orthogonalLoop=1;jettySize=auto;html=1;entryX=0.5;entryY=1;entryDx=0;entryDy=0;exitX=1;exitY=0.5;exitDx=0;exitDy=0;" edge="1" parent="1" source="LRi96Np3pduru6x6Xqpe-4" target="LRi96Np3pduru6x6Xqpe-6">
          <mxGeometry relative="1" as="geometry">
            <mxPoint x="680" y="360" as="sourcePoint" />
            <mxPoint x="660" y="220" as="targetPoint" />
            <Array as="points">
              <mxPoint x="720" y="370" />
              <mxPoint x="720" y="260" />
            </Array>
          </mxGeometry>
        </mxCell>
        <mxCell id="LRi96Np3pduru6x6Xqpe-13" value="" style="edgeStyle=orthogonalEdgeStyle;rounded=0;orthogonalLoop=1;jettySize=auto;html=1;exitX=1;exitY=0.5;exitDx=0;exitDy=0;entryX=0.5;entryY=0;entryDx=0;entryDy=0;" edge="1" parent="1" source="LRi96Np3pduru6x6Xqpe-2" target="LRi96Np3pduru6x6Xqpe-6">
          <mxGeometry relative="1" as="geometry">
            <mxPoint x="580" y="120" as="sourcePoint" />
            <mxPoint x="710" y="200" as="targetPoint" />
            <Array as="points">
              <mxPoint x="720" y="140" />
              <mxPoint x="720" y="220" />
            </Array>
          </mxGeometry>
        </mxCell>
        <mxCell id="LRi96Np3pduru6x6Xqpe-14" value="" style="edgeStyle=orthogonalEdgeStyle;rounded=0;orthogonalLoop=1;jettySize=auto;html=1;entryX=0.75;entryY=1;entryDx=0;entryDy=0;exitX=0;exitY=0.5;exitDx=0;exitDy=0;" edge="1" parent="1" source="LRi96Np3pduru6x6Xqpe-4" target="LRi96Np3pduru6x6Xqpe-2">
          <mxGeometry relative="1" as="geometry">
            <mxPoint x="530" y="495" as="sourcePoint" />
            <mxPoint x="639" y="385" as="targetPoint" />
            <Array as="points">
              <mxPoint x="440" y="370" />
              <mxPoint x="440" y="240" />
              <mxPoint x="375" y="240" />
            </Array>
          </mxGeometry>
        </mxCell>
        <mxCell id="LRi96Np3pduru6x6Xqpe-16" value="办税助手" style="rounded=1;whiteSpace=wrap;html=1;" vertex="1" parent="1">
          <mxGeometry x="30" y="120" width="100" height="40" as="geometry" />
        </mxCell>
        <mxCell id="LRi96Np3pduru6x6Xqpe-17" value="rpa" style="rounded=1;whiteSpace=wrap;html=1;" vertex="1" parent="1">
          <mxGeometry x="30" y="190" width="100" height="40" as="geometry" />
        </mxCell>
        <mxCell id="LRi96Np3pduru6x6Xqpe-18" value="" style="edgeStyle=orthogonalEdgeStyle;rounded=0;orthogonalLoop=1;jettySize=auto;html=1;exitX=1;exitY=0.5;exitDx=0;exitDy=0;entryX=0;entryY=0.5;entryDx=0;entryDy=0;" edge="1" parent="1" source="LRi96Np3pduru6x6Xqpe-16" target="LRi96Np3pduru6x6Xqpe-2">
          <mxGeometry relative="1" as="geometry">
            <mxPoint x="170.02000000000007" y="173" as="sourcePoint" />
            <mxPoint x="169.6" y="370" as="targetPoint" />
          </mxGeometry>
        </mxCell>
        <mxCell id="LRi96Np3pduru6x6Xqpe-19" value="" style="edgeStyle=orthogonalEdgeStyle;rounded=0;orthogonalLoop=1;jettySize=auto;html=1;exitX=1;exitY=0.5;exitDx=0;exitDy=0;entryX=0;entryY=0.5;entryDx=0;entryDy=0;" edge="1" parent="1" source="LRi96Np3pduru6x6Xqpe-17" target="LRi96Np3pduru6x6Xqpe-2">
          <mxGeometry relative="1" as="geometry">
            <mxPoint x="140" y="150" as="sourcePoint" />
            <mxPoint x="200" y="170" as="targetPoint" />
            <Array as="points">
              <mxPoint x="160" y="210" />
              <mxPoint x="160" y="140" />
            </Array>
          </mxGeometry>
        </mxCell>
      </root>
    </mxGraphModel>
  </diagram>
</mxfile>
